<svg width="220" height="85" viewBox="0 0 220 85" fill="none" xmlns="http://www.w3.org/2000/svg">
<path d="M47.6808 57.6739C46.2733 59.0667 45.0129 59.8427 43.1959 60.8267C42.8511 61.0135 42.6785 61.1068 42.4854 61.1028C42.2923 61.0991 42.1278 61.0011 41.7994 60.8055C40.0983 59.7929 39.1527 58.9541 37.946 57.6202C37.7533 57.4073 37.6571 57.3009 37.6085 57.1623C37.5595 57.0241 37.5675 56.8811 37.584 56.5956C37.8696 51.5545 39.1267 49.5053 42.0448 47.9841C42.3409 47.8294 42.489 47.7523 42.673 47.7548C42.8573 47.757 43.0039 47.8382 43.2972 48.0009C46.3307 49.6837 47.4212 51.7859 48.0709 56.4998C48.117 56.8347 48.1401 57.0018 48.0848 57.1656C48.0293 57.3291 47.913 57.4439 47.6808 57.6739Z" fill="#F5C811" style="fill:#F5C811;fill:color(display-p3 0.9608 0.7843 0.0667);fill-opacity:1;"/>
<path d="M59.0003 60.9349C53.8993 59.9242 50.6182 61.6388 45.1551 65.2889C45.0311 65.3716 45.1269 65.5661 45.2688 65.5211C50.3849 63.8939 52.2432 64.083 53.4502 66.0715C53.4989 66.1519 53.6155 66.1581 53.67 66.0813C55.0018 64.2102 56.1178 62.9494 59.0417 61.169C59.1408 61.1086 59.1141 60.9576 59.0003 60.9349Z" fill="#F5C811" style="fill:#F5C811;fill:color(display-p3 0.9608 0.7843 0.0667);fill-opacity:1;"/>
<path d="M41.3946 76.0139C27.3164 74.0027 31.5215 57.3649 25.488 51.697C35.361 52.0627 34.9954 73.0885 51.0847 65.958C50.5933 68.875 49.561 71.3044 48.1594 72.819C46.7607 74.3303 45.2341 75.6482 41.3946 76.0139Z" fill="#F5C811" style="fill:#F5C811;fill:color(display-p3 0.9608 0.7843 0.0667);fill-opacity:1;"/>
<path d="M37.3854 26.5226C38.7933 25.1298 40.0533 24.3538 41.8703 23.3698C42.2155 23.183 42.3878 23.0897 42.5812 23.0938C42.7743 23.0974 42.9385 23.1954 43.2672 23.391C44.9683 24.4036 45.9135 25.2424 47.1206 26.5764C47.3129 26.7892 47.4091 26.8956 47.4581 27.0342C47.5067 27.1724 47.4987 27.3154 47.4826 27.601C47.197 32.642 45.9399 34.6912 43.0218 36.2124C42.7256 36.3671 42.5775 36.4443 42.3932 36.4417C42.209 36.4395 42.0627 36.3583 41.7694 36.1956C38.7359 34.5128 37.6454 32.4106 36.9956 27.6968C36.9492 27.3618 36.9262 27.1947 36.9817 27.0309C37.0373 26.8674 37.1532 26.7526 37.3854 26.5226Z" fill="#826AF3" style="fill:#826AF3;fill:color(display-p3 0.5098 0.4157 0.9529);fill-opacity:1;"/>
<path d="M26.066 23.2617C31.1667 24.2724 34.4482 22.5578 39.9112 18.9077C40.0348 18.8251 39.9394 18.6306 39.7971 18.6755C34.6811 20.3027 32.8231 20.1137 31.6161 18.1253C31.5671 18.0448 31.4508 18.0385 31.3959 18.1153C30.0645 19.9864 28.9482 21.2473 26.0247 23.0277C25.9256 23.088 25.9519 23.2391 26.066 23.2617Z" fill="#826AF3" style="fill:#826AF3;fill:color(display-p3 0.5098 0.4157 0.9529);fill-opacity:1;"/>
<path d="M43.6714 8.18274C57.7496 10.1939 53.5444 26.8318 59.5779 32.4996C49.7049 32.1339 50.0705 11.1081 33.9812 18.2386C34.4723 15.3215 35.5046 12.892 36.9065 11.3775C38.3048 9.86638 39.8319 8.54841 43.6714 8.18274Z" fill="#826AF3" style="fill:#826AF3;fill:color(display-p3 0.5098 0.4157 0.9529);fill-opacity:1;"/>
<path d="M58.1586 36.9002C59.5515 38.3077 60.3274 39.5681 61.3114 41.3851C61.4983 41.73 61.5915 41.9026 61.5875 42.0956C61.5838 42.2891 61.4858 42.4533 61.2902 42.7816C60.2777 44.4831 59.4388 45.4283 58.1049 46.635C57.8921 46.8277 57.7857 46.9239 57.6471 46.9729C57.5089 47.0215 57.3659 47.0135 57.0803 46.9974C52.0392 46.7118 49.99 45.4543 48.4688 42.5366C48.3142 42.2404 48.237 42.0923 48.2396 41.908C48.2418 41.7237 48.3229 41.5771 48.4857 41.2842C50.1685 38.2506 52.2707 37.1602 56.9845 36.5101C57.3194 36.464 57.4866 36.441 57.6504 36.4965C57.8138 36.5518 57.9286 36.668 58.1586 36.9002Z" fill="#FC466E" style="fill:#FC466E;fill:color(display-p3 0.9882 0.2745 0.4314);fill-opacity:1;"/>
<path d="M61.4201 25.5807C60.409 30.6817 62.1236 33.9629 65.7737 39.4259C65.8564 39.5499 66.0509 39.4541 66.0059 39.3122C64.3787 34.1962 64.5677 32.3382 66.5562 31.1311C66.6367 31.0821 66.6429 30.9655 66.5661 30.911C64.695 29.5796 63.4342 28.4632 61.6537 25.5397C61.5934 25.4403 61.4424 25.467 61.4201 25.5807Z" fill="#FC466E" style="fill:#FC466E;fill:color(display-p3 0.9882 0.2745 0.4314);fill-opacity:1;"/>
<path d="M76.4992 43.1861C74.4881 57.2643 57.8502 53.0592 52.1824 59.0927C52.548 49.2197 73.5739 49.5853 66.4434 33.496C69.3603 33.9874 71.7898 35.0197 73.3044 36.4213C74.8157 37.82 76.1336 39.3466 76.4992 43.1861Z" fill="#FC466E" style="fill:#FC466E;fill:color(display-p3 0.9882 0.2745 0.4314);fill-opacity:1;"/>
<path d="M26.6421 47.1957C25.2493 45.7882 24.4733 44.5278 23.4893 42.7108C23.3025 42.3659 23.2092 42.1933 23.2133 42.0003C23.2169 41.8072 23.3149 41.6427 23.5105 41.3143C24.5231 39.6132 25.3619 38.6676 26.6959 37.4609C26.9087 37.2682 27.0151 37.172 27.1537 37.1234C27.2919 37.0744 27.4349 37.0824 27.7205 37.0989C32.7616 37.3845 34.8108 38.6416 36.3319 41.5596C36.4866 41.8558 36.5638 42.0039 36.5612 42.1879C36.559 42.3722 36.4778 42.5188 36.3151 42.8121C34.6323 45.8456 32.5301 46.9361 27.8163 47.5858C27.4813 47.6319 27.3142 47.655 27.1504 47.5997C26.9869 47.5442 26.8721 47.4279 26.6421 47.1957Z" fill="#0ACBAE" style="fill:#0ACBAE;fill:color(display-p3 0.0392 0.7961 0.6824);fill-opacity:1;"/>
<path d="M23.3806 58.5152C24.3917 53.4142 22.6771 50.133 19.027 44.67C18.9444 44.546 18.7495 44.6418 18.7948 44.7837C20.422 49.8997 20.2326 51.7581 18.2445 52.9651C18.164 53.0138 18.1578 53.1304 18.2346 53.1849C20.1057 54.5167 21.3666 55.6327 23.147 58.5565C23.2073 58.6556 23.3583 58.6289 23.3806 58.5152Z" fill="#0ACBAE" style="fill:#0ACBAE;fill:color(display-p3 0.0392 0.7961 0.6824);fill-opacity:1;"/>
<path d="M8.30225 40.9099C10.3134 26.8318 26.9513 31.0369 32.6191 25.0034C32.2534 34.8764 11.2276 34.5108 18.3581 50.6001C15.441 50.1087 13.0115 49.0764 11.497 47.6748C9.98589 46.2761 8.66791 44.7494 8.30225 40.9099Z" fill="#0ACBAE" style="fill:#0ACBAE;fill:color(display-p3 0.0392 0.7961 0.6824);fill-opacity:1;"/>
<path d="M82.0635 46.0083C83.0706 46.0803 83.833 46.9557 83.7178 47.9587C82.8797 55.2644 80.1646 62.2292 75.837 68.1743C75.2427 68.9908 74.0891 69.1195 73.2989 68.4906L73.2118 68.4214C72.4216 67.7925 72.2947 66.6447 72.8853 65.8259C76.7434 60.4792 79.177 54.2372 79.9555 47.69C80.0747 46.6873 80.945 45.9282 81.9524 46.0002L82.0635 46.0083Z" fill="#EDC103" style="fill:#EDC103;fill:color(display-p3 0.9294 0.7569 0.0118);fill-opacity:1;"/>
<path d="M38.4906 82.6752C38.4186 83.6823 37.5432 84.4447 36.5401 84.3295C29.2345 83.4914 22.2696 80.7763 16.3245 76.4486C15.5081 75.8544 15.3794 74.7008 16.0082 73.9106L16.0775 73.8235C16.7063 73.0333 17.8541 72.9064 18.6729 73.497C24.0197 77.3551 30.2616 79.7886 36.8089 80.5672C37.8116 80.6864 38.5707 81.5566 38.4987 82.5641L38.4906 82.6752Z" fill="#D24566" style="fill:#D24566;fill:color(display-p3 0.8235 0.2706 0.4000);fill-opacity:1;"/>
<path d="M2.11032 39.059C1.10122 39.0224 0.308893 38.1741 0.388864 37.1674C0.971372 29.8373 3.44189 22.7817 7.55934 16.6891C8.12477 15.8525 9.27329 15.6836 10.0849 16.2844L10.1744 16.3507C10.986 16.9515 11.153 18.0942 10.591 18.9331C6.92198 24.4111 4.70794 30.7342 4.15827 37.3045C4.07406 38.3109 3.23072 39.1 2.22162 39.063L2.11032 39.059Z" fill="#D24566" style="fill:#D24566;fill:color(display-p3 0.8235 0.2706 0.4000);fill-opacity:1;"/>
<path d="M45.762 2.43575C45.8341 1.42856 46.7095 0.666328 47.7125 0.781403C55.0182 1.61937 61.983 4.33462 67.928 8.66218C68.7446 9.25643 68.8733 10.4102 68.2443 11.2003L68.1752 11.2875C67.5463 12.0776 66.3985 12.2046 65.5797 11.6137C60.2329 7.7557 53.991 5.32233 47.4437 4.54368C46.4411 4.42443 45.682 3.55407 45.754 2.54688L45.762 2.43575Z" fill="#EDC103" style="fill:#EDC103;fill:color(display-p3 0.9294 0.7569 0.0118);fill-opacity:1;"/>
<path d="M68.0062 73.3633C68.6542 74.1377 68.5537 75.2943 67.7521 75.9083C61.915 80.3804 55.0185 83.2655 47.7359 84.2824C46.7358 84.4218 45.8417 83.6813 45.7452 82.6761L45.7346 82.5653C45.638 81.56 46.3756 80.6715 47.375 80.5278C53.901 79.5887 60.0815 77.0031 65.3321 73.0151C66.1362 72.4045 67.2866 72.5032 67.9346 73.2777L68.0062 73.3633Z" fill="#09CAAA" style="fill:#09CAAA;fill:color(display-p3 0.0353 0.7922 0.6667);fill-opacity:1;"/>
<path d="M11.3044 68.2526C10.5299 68.9005 9.37336 68.8 8.75926 67.9984C4.2873 62.1613 1.40215 55.2648 0.385338 47.9822C0.245726 46.9821 0.986275 46.088 1.99138 45.9915L2.10229 45.9809C3.10744 45.8844 3.99612 46.6219 4.13993 47.6213C5.07878 54.1474 7.66442 60.3279 11.6523 65.5785C12.2631 66.3826 12.1643 67.533 11.3898 68.1809L11.3044 68.2526Z" fill="#876AFF" style="fill:#876AFF;fill:color(display-p3 0.5294 0.4157 1.0000);fill-opacity:1;"/>
<path d="M15.7053 11.7514C15.0308 11.0001 15.0907 9.84071 15.8704 9.199C21.548 4.52607 28.3396 1.40199 35.5823 0.131666C36.5766 -0.0427939 37.4962 0.666087 37.6275 1.66725L37.6421 1.77772C37.7738 2.77884 37.0677 3.69275 36.0738 3.87134C29.5847 5.03742 23.4981 7.83715 18.3901 12.0059C17.6077 12.6443 16.4543 12.5857 15.7797 11.8344L15.7053 11.7514Z" fill="#09CAAA" style="fill:#09CAAA;fill:color(display-p3 0.0353 0.7922 0.6667);fill-opacity:1;"/>
<path d="M73.1169 15.93C73.8914 15.2821 75.048 15.3825 75.662 16.184C80.1341 22.0214 83.0192 28.9175 84.0357 36.2005C84.1754 37.2002 83.4349 38.0943 82.4297 38.1908L82.3189 38.2018C81.3137 38.2983 80.4251 37.5608 80.2814 36.5614C79.3424 30.0353 76.7568 23.8548 72.7688 18.6042C72.1581 17.8001 72.2569 16.6494 73.0314 16.0015L73.1169 15.93Z" fill="#876AFF" style="fill:#876AFF;fill:color(display-p3 0.5294 0.4157 1.0000);fill-opacity:1;"/>
<path d="M98.1232 5.86328V11.5563C99.6675 12.5314 101.2 13.5066 102.72 14.4818C104.264 15.4306 105.797 16.3926 107.317 17.3678V30.9677H98.1232L93.5264 25.9468V20.6097H98.1232V25.9468H102.72V20.2539C101.2 19.2787 99.6675 18.3167 98.1232 17.3678C96.603 16.3926 95.0707 15.4175 93.5264 14.4423V0.84239H102.72L107.317 5.86328V11.24H102.72V5.86328H98.1232Z" fill="#FC466E" style="fill:#FC466E;fill:color(display-p3 0.9882 0.2745 0.4314);fill-opacity:1;"/>
<path d="M109.856 0.881924H123.646V5.90281H119.049V31.0072H114.453V5.90281H109.856V0.881924Z" fill="#FC466E" style="fill:#FC466E;fill:color(display-p3 0.9882 0.2745 0.4314);fill-opacity:1;"/>
<path d="M147.76 0.84239H156.953L161.55 5.86328V14.4423L159.27 15.9051L161.55 17.3678V30.9677H156.953V20.2539L154.673 18.7911L152.356 20.2539V30.9677H147.76V0.84239ZM152.356 5.86328V14.4423L156.953 11.5563V5.86328H152.356Z" fill="#FC466E" style="fill:#FC466E;fill:color(display-p3 0.9882 0.2745 0.4314);fill-opacity:1;"/>
<path d="M164.09 0.881924H177.88V5.90281H173.284V31.0072H168.687V5.90281H164.09V0.881924Z" fill="#FC466E" style="fill:#FC466E;fill:color(display-p3 0.9882 0.2745 0.4314);fill-opacity:1;"/>
<path d="M184.84 25.9073H189.437V0.802856H194.034V30.9282H184.84L180.243 25.9073V0.802856H184.84V25.9073Z" fill="#FC466E" style="fill:#FC466E;fill:color(display-p3 0.9882 0.2745 0.4314);fill-opacity:1;"/>
<path d="M118.713 40.1865V45.8794C120.251 46.8546 121.777 47.8298 123.292 48.805C124.83 49.7538 126.356 50.7158 127.87 51.691V65.2909H118.713L114.134 60.27V54.9328H118.713V60.27H123.292V54.577C121.777 53.6019 120.251 52.6398 118.713 51.691C117.199 50.7158 115.672 49.7406 114.134 48.7655V35.1656H123.292L127.87 40.1865V45.5632H123.292V40.1865H118.713Z" fill="#0ACBAE" style="fill:#0ACBAE;fill:color(display-p3 0.0392 0.7961 0.6824);fill-opacity:1;"/>
<path d="M134.978 60.2305H139.557V35.126H144.136V65.2514H134.978L131.089 60.2305V35.2051L134.978 35.126V60.2305Z" fill="#0ACBAE" style="fill:#0ACBAE;fill:color(display-p3 0.0392 0.7961 0.6824);fill-opacity:1;"/>
<path d="M169.524 65.2909H164.945V40.9772L160.366 43.9027V65.2909H155.787V54.5968V43.9027L151.209 40.9772V65.2909H146.666V35.2051H151.209L158.095 39.5539L164.945 35.2051H169.524V65.2909Z" fill="#0ACBAE" style="fill:#0ACBAE;fill:color(display-p3 0.0392 0.7961 0.6824);fill-opacity:1;"/>
<path d="M194.909 65.2909H190.33V40.9772L185.752 43.9027V65.2909H181.173V43.9027L176.594 40.9772V65.2909H172.051V35.2051H176.594L183.48 39.5539L190.33 35.2051H194.909V65.2909Z" fill="#0ACBAE" style="fill:#0ACBAE;fill:color(display-p3 0.0392 0.7961 0.6824);fill-opacity:1;"/>
<path d="M206.106 26.9473L219.842 18.2631L219.842 24.5789L215.264 27.7367V65.2514H210.685V29.3157L206.106 31.6841V26.9473Z" fill="#0ACBAE" style="fill:#0ACBAE;fill:color(display-p3 0.0392 0.7961 0.6824);fill-opacity:1;"/>
<path d="M198.162 31.1471H203.582V61.2724L200.872 65.7892L198.162 61.2724V46.2098V31.1471Z" fill="#826AF3" style="fill:#826AF3;fill:color(display-p3 0.5098 0.4157 0.9529);fill-opacity:1;"/>
<path fill-rule="evenodd" clip-rule="evenodd" d="M137.919 23.2553L138.857 31.4614L143.937 20.4418L139.794 15.7526C139.464 18.9996 139.112 20.6886 137.919 23.2553ZM141.124 17.941L143.156 20.52L140.03 27.4757L143.625 20.52L141.124 17.941Z" fill="#EDC103" style="fill:#EDC103;fill:color(display-p3 0.9294 0.7569 0.0118);fill-opacity:1;"/>
<path fill-rule="evenodd" clip-rule="evenodd" d="M130.104 23.2553L129.166 31.4614L124.086 20.4418L128.228 15.7526C128.558 18.9996 128.91 20.6886 130.104 23.2553ZM126.899 17.941L124.867 20.52L127.994 27.4757L124.398 20.52L126.899 17.941Z" fill="#EDC103" style="fill:#EDC103;fill:color(display-p3 0.9294 0.7569 0.0118);fill-opacity:1;"/>
<path fill-rule="evenodd" clip-rule="evenodd" d="M137.532 23.1144C140.58 12.4075 140.814 6.5458 133.937 0.747192C127.998 5.37357 126.512 12.3293 130.654 23.1144H137.532ZM131.019 22.7863C127.971 13.3297 128.05 7.70227 132.661 2.30969C129.535 8.24932 129.378 13.7987 131.879 22.7863H131.019ZM138.622 7.6247C137.468 5.09181 136.577 3.54137 134.089 1.37242C136.184 3.55166 137.096 5.07488 138.565 7.52841L138.622 7.6247Z" fill="#EDC103" style="fill:#EDC103;fill:color(display-p3 0.9294 0.7569 0.0118);fill-opacity:1;"/>
<path d="M198.161 0.747192H213.526L219.842 15.8947C218.021 16.889 205.402 24.9643 203.582 25.9586C201.789 26.926 205.374 24.9643 203.582 25.9586V31.4615H198.161V0.747192ZM213.526 13.5263L210.369 5.86624H203.582V19.0526L213.526 13.5263Z" fill="#826AF3" style="fill:#826AF3;fill:color(display-p3 0.5098 0.4157 0.9529);fill-opacity:1;"/>
<line x1="93.5264" y1="68.8632" x2="219.842" y2="68.8632" stroke="#FC466E" style="stroke:#FC466E;stroke:color(display-p3 0.9882 0.2745 0.4314);stroke-opacity:1;"/>
<path d="M93.8774 73.5227H95.2811V81.9448H93.8774V73.5227Z" fill="#F5C811" style="fill:#F5C811;fill:color(display-p3 0.9608 0.7843 0.0667);fill-opacity:1;"/>
<path d="M100.081 77.4795V74.9374H101.485V81.9559H100.081V80.3643L98.6772 77.8443V81.9559H97.2735V74.9374H98.6662L100.081 77.4795Z" fill="#F5C811" style="fill:#F5C811;fill:color(display-p3 0.9608 0.7843 0.0667);fill-opacity:1;"/>
<path d="M106.283 77.4795V74.9374H107.687V81.9559H106.283V80.3643L104.88 77.8443V81.9559H103.476V74.9374H104.869L106.283 77.4795Z" fill="#F5C811" style="fill:#F5C811;fill:color(display-p3 0.9608 0.7843 0.0667);fill-opacity:1;"/>
<path d="M111.082 76.3411V80.5522H112.486V76.3411H111.082ZM109.678 80.5522V74.9374H112.486L113.889 76.3411V81.9559H111.082L109.678 80.5522Z" fill="#F5C811" style="fill:#F5C811;fill:color(display-p3 0.9608 0.7843 0.0667);fill-opacity:1;"/>
<path d="M117.992 81.9448L115.881 80.729V74.9264H117.284V79.9111L117.992 80.3201L118.688 79.9111V74.9264H120.092V80.729L117.992 81.9448Z" fill="#F5C811" style="fill:#F5C811;fill:color(display-p3 0.9608 0.7843 0.0667);fill-opacity:1;"/>
<path d="M122.083 74.9374H124.891L126.294 76.3411V81.9559H124.891V79.5464L123.487 80.3643V81.9559H122.083V74.9374ZM124.891 77.9327V76.3411H123.487V78.7395L124.891 77.9327Z" fill="#F5C811" style="fill:#F5C811;fill:color(display-p3 0.9608 0.7843 0.0667);fill-opacity:1;"/>
<path d="M128.286 74.9595H132.497V76.3632H131.093V81.978H129.689V76.3632H128.286V74.9595Z" fill="#F5C811" style="fill:#F5C811;fill:color(display-p3 0.9608 0.7843 0.0667);fill-opacity:1;"/>
<path d="M135.719 78.0322L137.819 76.8164V78.4411L137.123 78.8501L135.719 79.6569V80.5522H138.526V81.9559H134.315V74.9374H138.526V76.3411H135.719V78.0322Z" fill="#F5C811" style="fill:#F5C811;fill:color(display-p3 0.9608 0.7843 0.0667);fill-opacity:1;"/>
<path d="M143.741 73.5448H147.952V74.9485H145.145V77.3469L147.245 76.1311V77.7559L145.145 78.9717V81.9559H143.741V73.5448Z" fill="#F5C811" style="fill:#F5C811;fill:color(display-p3 0.9608 0.7843 0.0667);fill-opacity:1;"/>
<path d="M151.239 76.3411V80.5522H152.643V76.3411H151.239ZM149.836 80.5522V74.9374H152.643L154.047 76.3411V81.9559H151.239L149.836 80.5522Z" fill="#F5C811" style="fill:#F5C811;fill:color(display-p3 0.9608 0.7843 0.0667);fill-opacity:1;"/>
<path d="M158.845 79.6569L158.138 79.248L157.442 79.6569V81.9559H156.038V74.9374H158.845L160.249 76.3411V78.0322L159.542 78.4411L160.249 78.8501V81.9559H158.845V79.6569ZM157.442 76.3411V78.0322L158.138 77.6343L158.845 77.2253V76.3411H157.442Z" fill="#F5C811" style="fill:#F5C811;fill:color(display-p3 0.9608 0.7843 0.0667);fill-opacity:1;"/>
<path d="M165.54 73.5448H169.751V74.9485H168.347V81.9669H166.943V74.9485H165.54V73.5448Z" fill="#F5C811" style="fill:#F5C811;fill:color(display-p3 0.9608 0.7843 0.0667);fill-opacity:1;"/>
<path d="M173.092 76.3411V80.5522H174.495V76.3411H173.092ZM171.688 80.5522V74.9374H174.495L175.899 76.3411V81.9559H173.092L171.688 80.5522Z" fill="#F5C811" style="fill:#F5C811;fill:color(display-p3 0.9608 0.7843 0.0667);fill-opacity:1;"/>
<path d="M183.505 74.9264H184.909V81.9448H183.505V76.5401L182.101 77.358V81.9448H180.698V76.5401L179.294 77.358V81.9448H177.89V74.9264H179.294V75.7332L179.99 75.3243L180.698 74.9264H182.101V75.7332L183.505 74.9264Z" fill="#F5C811" style="fill:#F5C811;fill:color(display-p3 0.9608 0.7843 0.0667);fill-opacity:1;"/>
<path d="M188.303 76.3411V80.5522H189.707V76.3411H188.303ZM186.899 80.5522V74.9374H189.707L191.11 76.3411V81.9559H188.303L186.899 80.5522Z" fill="#F5C811" style="fill:#F5C811;fill:color(display-p3 0.9608 0.7843 0.0667);fill-opacity:1;"/>
<path d="M195.909 79.6569L195.202 79.248L194.505 79.6569V81.9559H193.102V74.9374H195.909L197.313 76.3411V78.0322L196.605 78.4411L197.313 78.8501V81.9559H195.909V79.6569ZM194.505 76.3411V78.0322L195.202 77.6343L195.909 77.2253V76.3411H194.505Z" fill="#F5C811" style="fill:#F5C811;fill:color(display-p3 0.9608 0.7843 0.0667);fill-opacity:1;"/>
<path d="M202.111 79.6569L201.404 79.248L200.708 79.6569V81.9559H199.304V74.9374H202.111L203.515 76.3411V78.0322L202.808 78.4411L203.515 78.8501V81.9559H202.111V79.6569ZM200.708 76.3411V78.0322L201.404 77.6343L202.111 77.2253V76.3411H200.708Z" fill="#F5C811" style="fill:#F5C811;fill:color(display-p3 0.9608 0.7843 0.0667);fill-opacity:1;"/>
<path d="M206.91 76.3411V80.5522H208.314V76.3411H206.91ZM205.506 80.5522V74.9374H208.314L209.717 76.3411V81.9559H206.91L205.506 80.5522Z" fill="#F5C811" style="fill:#F5C811;fill:color(display-p3 0.9608 0.7843 0.0667);fill-opacity:1;"/>
<path d="M213.798 81.9669L211.698 80.7511V74.9485H213.101V79.9332L213.798 80.3422L214.505 79.9332V74.9485H215.909V79.9332L216.605 80.3422L217.313 79.9332V74.9485H218.716V80.7511L216.605 81.9669L215.201 81.149L213.798 81.9669Z" fill="#F5C811" style="fill:#F5C811;fill:color(display-p3 0.9608 0.7843 0.0667);fill-opacity:1;"/>
</svg>
